<svg class="rich-terminal" viewBox="0 0 1848 1440.8" xmlns="http://www.w3.org/2000/svg">
    <!-- Generated with Rich https://www.textualize.io -->
    <style>

    @font-face {
        font-family: "Fira Code";
        src: local("FiraCode-Regular"),
                url("https://cdnjs.cloudflare.com/ajax/libs/firacode/6.2.0/woff2/FiraCode-Regular.woff2") format("woff2"),
                url("https://cdnjs.cloudflare.com/ajax/libs/firacode/6.2.0/woff/FiraCode-Regular.woff") format("woff");
        font-style: normal;
        font-weight: 400;
    }
    @font-face {
        font-family: "Fira Code";
        src: local("FiraCode-Bold"),
                url("https://cdnjs.cloudflare.com/ajax/libs/firacode/6.2.0/woff2/FiraCode-Bold.woff2") format("woff2"),
                url("https://cdnjs.cloudflare.com/ajax/libs/firacode/6.2.0/woff/FiraCode-Bold.woff") format("woff");
        font-style: bold;
        font-weight: 700;
    }

    .terminal-4087944041-matrix {
        font-family: Fira Code, monospace;
        font-size: 20px;
        line-height: 24.4px;
        font-variant-east-asian: full-width;
    }

    .terminal-4087944041-title {
        font-size: 18px;
        font-weight: bold;
        font-family: arial;
    }

    .terminal-4087944041-r1 { fill: #c9d1d9 }
.terminal-4087944041-r2 { fill: #c5c8c6 }
.terminal-4087944041-r3 { fill: #d2a8ff;font-weight: bold }
.terminal-4087944041-r4 { fill: #30363d }
.terminal-4087944041-r5 { fill: #58a6ff;font-weight: bold }
.terminal-4087944041-r6 { fill: #8b949e }
.terminal-4087944041-r7 { fill: #58a6ff }
    </style>

    <defs>
    <clipPath id="terminal-4087944041-clip-terminal">
      <rect x="0" y="0" width="1829.0" height="1389.8" />
    </clipPath>
    <clipPath id="terminal-4087944041-line-0">
    <rect x="0" y="1.5" width="1830" height="24.65"/>
            </clipPath>
<clipPath id="terminal-4087944041-line-1">
    <rect x="0" y="25.9" width="1830" height="24.65"/>
            </clipPath>
<clipPath id="terminal-4087944041-line-2">
    <rect x="0" y="50.3" width="1830" height="24.65"/>
            </clipPath>
<clipPath id="terminal-4087944041-line-3">
    <rect x="0" y="74.7" width="1830" height="24.65"/>
            </clipPath>
<clipPath id="terminal-4087944041-line-4">
    <rect x="0" y="99.1" width="1830" height="24.65"/>
            </clipPath>
<clipPath id="terminal-4087944041-line-5">
    <rect x="0" y="123.5" width="1830" height="24.65"/>
            </clipPath>
<clipPath id="terminal-4087944041-line-6">
    <rect x="0" y="147.9" width="1830" height="24.65"/>
            </clipPath>
<clipPath id="terminal-4087944041-line-7">
    <rect x="0" y="172.3" width="1830" height="24.65"/>
            </clipPath>
<clipPath id="terminal-4087944041-line-8">
    <rect x="0" y="196.7" width="1830" height="24.65"/>
            </clipPath>
<clipPath id="terminal-4087944041-line-9">
    <rect x="0" y="221.1" width="1830" height="24.65"/>
            </clipPath>
<clipPath id="terminal-4087944041-line-10">
    <rect x="0" y="245.5" width="1830" height="24.65"/>
            </clipPath>
<clipPath id="terminal-4087944041-line-11">
    <rect x="0" y="269.9" width="1830" height="24.65"/>
            </clipPath>
<clipPath id="terminal-4087944041-line-12">
    <rect x="0" y="294.3" width="1830" height="24.65"/>
            </clipPath>
<clipPath id="terminal-4087944041-line-13">
    <rect x="0" y="318.7" width="1830" height="24.65"/>
            </clipPath>
<clipPath id="terminal-4087944041-line-14">
    <rect x="0" y="343.1" width="1830" height="24.65"/>
            </clipPath>
<clipPath id="terminal-4087944041-line-15">
    <rect x="0" y="367.5" width="1830" height="24.65"/>
            </clipPath>
<clipPath id="terminal-4087944041-line-16">
    <rect x="0" y="391.9" width="1830" height="24.65"/>
            </clipPath>
<clipPath id="terminal-4087944041-line-17">
    <rect x="0" y="416.3" width="1830" height="24.65"/>
            </clipPath>
<clipPath id="terminal-4087944041-line-18">
    <rect x="0" y="440.7" width="1830" height="24.65"/>
            </clipPath>
<clipPath id="terminal-4087944041-line-19">
    <rect x="0" y="465.1" width="1830" height="24.65"/>
            </clipPath>
<clipPath id="terminal-4087944041-line-20">
    <rect x="0" y="489.5" width="1830" height="24.65"/>
            </clipPath>
<clipPath id="terminal-4087944041-line-21">
    <rect x="0" y="513.9" width="1830" height="24.65"/>
            </clipPath>
<clipPath id="terminal-4087944041-line-22">
    <rect x="0" y="538.3" width="1830" height="24.65"/>
            </clipPath>
<clipPath id="terminal-4087944041-line-23">
    <rect x="0" y="562.7" width="1830" height="24.65"/>
            </clipPath>
<clipPath id="terminal-4087944041-line-24">
    <rect x="0" y="587.1" width="1830" height="24.65"/>
            </clipPath>
<clipPath id="terminal-4087944041-line-25">
    <rect x="0" y="611.5" width="1830" height="24.65"/>
            </clipPath>
<clipPath id="terminal-4087944041-line-26">
    <rect x="0" y="635.9" width="1830" height="24.65"/>
            </clipPath>
<clipPath id="terminal-4087944041-line-27">
    <rect x="0" y="660.3" width="1830" height="24.65"/>
            </clipPath>
<clipPath id="terminal-4087944041-line-28">
    <rect x="0" y="684.7" width="1830" height="24.65"/>
            </clipPath>
<clipPath id="terminal-4087944041-line-29">
    <rect x="0" y="709.1" width="1830" height="24.65"/>
            </clipPath>
<clipPath id="terminal-4087944041-line-30">
    <rect x="0" y="733.5" width="1830" height="24.65"/>
            </clipPath>
<clipPath id="terminal-4087944041-line-31">
    <rect x="0" y="757.9" width="1830" height="24.65"/>
            </clipPath>
<clipPath id="terminal-4087944041-line-32">
    <rect x="0" y="782.3" width="1830" height="24.65"/>
            </clipPath>
<clipPath id="terminal-4087944041-line-33">
    <rect x="0" y="806.7" width="1830" height="24.65"/>
            </clipPath>
<clipPath id="terminal-4087944041-line-34">
    <rect x="0" y="831.1" width="1830" height="24.65"/>
            </clipPath>
<clipPath id="terminal-4087944041-line-35">
    <rect x="0" y="855.5" width="1830" height="24.65"/>
            </clipPath>
<clipPath id="terminal-4087944041-line-36">
    <rect x="0" y="879.9" width="1830" height="24.65"/>
            </clipPath>
<clipPath id="terminal-4087944041-line-37">
    <rect x="0" y="904.3" width="1830" height="24.65"/>
            </clipPath>
<clipPath id="terminal-4087944041-line-38">
    <rect x="0" y="928.7" width="1830" height="24.65"/>
            </clipPath>
<clipPath id="terminal-4087944041-line-39">
    <rect x="0" y="953.1" width="1830" height="24.65"/>
            </clipPath>
<clipPath id="terminal-4087944041-line-40">
    <rect x="0" y="977.5" width="1830" height="24.65"/>
            </clipPath>
<clipPath id="terminal-4087944041-line-41">
    <rect x="0" y="1001.9" width="1830" height="24.65"/>
            </clipPath>
<clipPath id="terminal-4087944041-line-42">
    <rect x="0" y="1026.3" width="1830" height="24.65"/>
            </clipPath>
<clipPath id="terminal-4087944041-line-43">
    <rect x="0" y="1050.7" width="1830" height="24.65"/>
            </clipPath>
<clipPath id="terminal-4087944041-line-44">
    <rect x="0" y="1075.1" width="1830" height="24.65"/>
            </clipPath>
<clipPath id="terminal-4087944041-line-45">
    <rect x="0" y="1099.5" width="1830" height="24.65"/>
            </clipPath>
<clipPath id="terminal-4087944041-line-46">
    <rect x="0" y="1123.9" width="1830" height="24.65"/>
            </clipPath>
<clipPath id="terminal-4087944041-line-47">
    <rect x="0" y="1148.3" width="1830" height="24.65"/>
            </clipPath>
<clipPath id="terminal-4087944041-line-48">
    <rect x="0" y="1172.7" width="1830" height="24.65"/>
            </clipPath>
<clipPath id="terminal-4087944041-line-49">
    <rect x="0" y="1197.1" width="1830" height="24.65"/>
            </clipPath>
<clipPath id="terminal-4087944041-line-50">
    <rect x="0" y="1221.5" width="1830" height="24.65"/>
            </clipPath>
<clipPath id="terminal-4087944041-line-51">
    <rect x="0" y="1245.9" width="1830" height="24.65"/>
            </clipPath>
<clipPath id="terminal-4087944041-line-52">
    <rect x="0" y="1270.3" width="1830" height="24.65"/>
            </clipPath>
<clipPath id="terminal-4087944041-line-53">
    <rect x="0" y="1294.7" width="1830" height="24.65"/>
            </clipPath>
<clipPath id="terminal-4087944041-line-54">
    <rect x="0" y="1319.1" width="1830" height="24.65"/>
            </clipPath>
<clipPath id="terminal-4087944041-line-55">
    <rect x="0" y="1343.5" width="1830" height="24.65"/>
            </clipPath>
    </defs>

    <rect fill="#292929" stroke="rgba(255,255,255,0.35)" stroke-width="1" x="1" y="1" width="1846" height="1438.8" rx="8"/><text class="terminal-4087944041-title" fill="#c5c8c6" text-anchor="middle" x="923" y="27">Forge</text>
            <g transform="translate(26,22)">
            <circle cx="0" cy="0" r="7" fill="#ff5f57"/>
            <circle cx="22" cy="0" r="7" fill="#febc2e"/>
            <circle cx="44" cy="0" r="7" fill="#28c840"/>
            </g>
        
    <g transform="translate(9, 41)" clip-path="url(#terminal-4087944041-clip-terminal)">
    <rect fill="#0d1117" x="0" y="1.5" width="1830" height="24.65" shape-rendering="crispEdges"/><rect fill="#0d1117" x="0" y="25.9" width="744.2" height="24.65" shape-rendering="crispEdges"/><rect fill="#0d1117" x="744.2" y="25.9" width="341.6" height="24.65" shape-rendering="crispEdges"/><rect fill="#0d1117" x="1085.8" y="25.9" width="744.2" height="24.65" shape-rendering="crispEdges"/><rect fill="#0d1117" x="0" y="50.3" width="1830" height="24.65" shape-rendering="crispEdges"/><rect fill="#0d1117" x="0" y="74.7" width="1830" height="24.65" shape-rendering="crispEdges"/><rect fill="#0d1117" x="0" y="99.1" width="1830" height="24.65" shape-rendering="crispEdges"/><rect fill="#0d1117" x="0" y="123.5" width="1830" height="24.65" shape-rendering="crispEdges"/><rect fill="#0d1117" x="0" y="147.9" width="12.2" height="24.65" shape-rendering="crispEdges"/><rect fill="#0d1117" x="12.2" y="147.9" width="73.2" height="24.65" shape-rendering="crispEdges"/><rect fill="#0d1117" x="85.4" y="147.9" width="597.8" height="24.65" shape-rendering="crispEdges"/><rect fill="#0d1117" x="683.2" y="147.9" width="12.2" height="24.65" shape-rendering="crispEdges"/><rect fill="#0d1117" x="695.4" y="147.9" width="1122.4" height="24.65" shape-rendering="crispEdges"/><rect fill="#0d1117" x="1817.8" y="147.9" width="12.2" height="24.65" shape-rendering="crispEdges"/><rect fill="#0d1117" x="0" y="172.3" width="12.2" height="24.65" shape-rendering="crispEdges"/><rect fill="#0d1117" x="12.2" y="172.3" width="732" height="24.65" shape-rendering="crispEdges"/><rect fill="#0d1117" x="744.2" y="172.3" width="1073.6" height="24.65" shape-rendering="crispEdges"/><rect fill="#0d1117" x="1817.8" y="172.3" width="12.2" height="24.65" shape-rendering="crispEdges"/><rect fill="#0d1117" x="0" y="196.7" width="12.2" height="24.65" shape-rendering="crispEdges"/><rect fill="#0d1117" x="12.2" y="196.7" width="12.2" height="24.65" shape-rendering="crispEdges"/><rect fill="#0d1117" x="24.4" y="196.7" width="12.2" height="24.65" shape-rendering="crispEdges"/><rect fill="#0d1117" x="36.6" y="196.7" width="256.2" height="24.65" shape-rendering="crispEdges"/><rect fill="#0d1117" x="292.8" y="196.7" width="1525" height="24.65" shape-rendering="crispEdges"/><rect fill="#0d1117" x="1817.8" y="196.7" width="12.2" height="24.65" shape-rendering="crispEdges"/><rect fill="#0d1117" x="0" y="221.1" width="12.2" height="24.65" shape-rendering="crispEdges"/><rect fill="#0d1117" x="12.2" y="221.1" width="1805.6" height="24.65" shape-rendering="crispEdges"/><rect fill="#0d1117" x="1817.8" y="221.1" width="12.2" height="24.65" shape-rendering="crispEdges"/><rect fill="#0d1117" x="0" y="245.5" width="12.2" height="24.65" shape-rendering="crispEdges"/><rect fill="#0d1117" x="12.2" y="245.5" width="1805.6" height="24.65" shape-rendering="crispEdges"/><rect fill="#0d1117" x="1817.8" y="245.5" width="12.2" height="24.65" shape-rendering="crispEdges"/><rect fill="#0d1117" x="0" y="269.9" width="12.2" height="24.65" shape-rendering="crispEdges"/><rect fill="#0d1117" x="12.2" y="269.9" width="1805.6" height="24.65" shape-rendering="crispEdges"/><rect fill="#0d1117" x="1817.8" y="269.9" width="12.2" height="24.65" shape-rendering="crispEdges"/><rect fill="#0d1117" x="0" y="294.3" width="12.2" height="24.65" shape-rendering="crispEdges"/><rect fill="#0d1117" x="12.2" y="294.3" width="1805.6" height="24.65" shape-rendering="crispEdges"/><rect fill="#0d1117" x="1817.8" y="294.3" width="12.2" height="24.65" shape-rendering="crispEdges"/><rect fill="#0d1117" x="0" y="318.7" width="12.2" height="24.65" shape-rendering="crispEdges"/><rect fill="#0d1117" x="12.2" y="318.7" width="1805.6" height="24.65" shape-rendering="crispEdges"/><rect fill="#0d1117" x="1817.8" y="318.7" width="12.2" height="24.65" shape-rendering="crispEdges"/><rect fill="#0d1117" x="0" y="343.1" width="12.2" height="24.65" shape-rendering="crispEdges"/><rect fill="#0d1117" x="12.2" y="343.1" width="1805.6" height="24.65" shape-rendering="crispEdges"/><rect fill="#0d1117" x="1817.8" y="343.1" width="12.2" height="24.65" shape-rendering="crispEdges"/><rect fill="#0d1117" x="0" y="367.5" width="12.2" height="24.65" shape-rendering="crispEdges"/><rect fill="#0d1117" x="12.2" y="367.5" width="1805.6" height="24.65" shape-rendering="crispEdges"/><rect fill="#0d1117" x="1817.8" y="367.5" width="12.2" height="24.65" shape-rendering="crispEdges"/><rect fill="#0d1117" x="0" y="391.9" width="12.2" height="24.65" shape-rendering="crispEdges"/><rect fill="#0d1117" x="12.2" y="391.9" width="1805.6" height="24.65" shape-rendering="crispEdges"/><rect fill="#0d1117" x="1817.8" y="391.9" width="12.2" height="24.65" shape-rendering="crispEdges"/><rect fill="#0d1117" x="0" y="416.3" width="12.2" height="24.65" shape-rendering="crispEdges"/><rect fill="#0d1117" x="12.2" y="416.3" width="1805.6" height="24.65" shape-rendering="crispEdges"/><rect fill="#0d1117" x="1817.8" y="416.3" width="12.2" height="24.65" shape-rendering="crispEdges"/><rect fill="#0d1117" x="0" y="440.7" width="12.2" height="24.65" shape-rendering="crispEdges"/><rect fill="#0d1117" x="12.2" y="440.7" width="1805.6" height="24.65" shape-rendering="crispEdges"/><rect fill="#0d1117" x="1817.8" y="440.7" width="12.2" height="24.65" shape-rendering="crispEdges"/><rect fill="#0d1117" x="0" y="465.1" width="12.2" height="24.65" shape-rendering="crispEdges"/><rect fill="#0d1117" x="12.2" y="465.1" width="1805.6" height="24.65" shape-rendering="crispEdges"/><rect fill="#0d1117" x="1817.8" y="465.1" width="12.2" height="24.65" shape-rendering="crispEdges"/><rect fill="#0d1117" x="0" y="489.5" width="12.2" height="24.65" shape-rendering="crispEdges"/><rect fill="#0d1117" x="12.2" y="489.5" width="1805.6" height="24.65" shape-rendering="crispEdges"/><rect fill="#0d1117" x="1817.8" y="489.5" width="12.2" height="24.65" shape-rendering="crispEdges"/><rect fill="#0d1117" x="0" y="513.9" width="12.2" height="24.65" shape-rendering="crispEdges"/><rect fill="#0d1117" x="12.2" y="513.9" width="1805.6" height="24.65" shape-rendering="crispEdges"/><rect fill="#0d1117" x="1817.8" y="513.9" width="12.2" height="24.65" shape-rendering="crispEdges"/><rect fill="#0d1117" x="0" y="538.3" width="12.2" height="24.65" shape-rendering="crispEdges"/><rect fill="#0d1117" x="12.2" y="538.3" width="1805.6" height="24.65" shape-rendering="crispEdges"/><rect fill="#0d1117" x="1817.8" y="538.3" width="12.2" height="24.65" shape-rendering="crispEdges"/><rect fill="#0d1117" x="0" y="562.7" width="12.2" height="24.65" shape-rendering="crispEdges"/><rect fill="#0d1117" x="12.2" y="562.7" width="1805.6" height="24.65" shape-rendering="crispEdges"/><rect fill="#0d1117" x="1817.8" y="562.7" width="12.2" height="24.65" shape-rendering="crispEdges"/><rect fill="#0d1117" x="0" y="587.1" width="12.2" height="24.65" shape-rendering="crispEdges"/><rect fill="#0d1117" x="12.2" y="587.1" width="1805.6" height="24.65" shape-rendering="crispEdges"/><rect fill="#0d1117" x="1817.8" y="587.1" width="12.2" height="24.65" shape-rendering="crispEdges"/><rect fill="#0d1117" x="0" y="611.5" width="12.2" height="24.65" shape-rendering="crispEdges"/><rect fill="#0d1117" x="12.2" y="611.5" width="1805.6" height="24.65" shape-rendering="crispEdges"/><rect fill="#0d1117" x="1817.8" y="611.5" width="12.2" height="24.65" shape-rendering="crispEdges"/><rect fill="#0d1117" x="0" y="635.9" width="12.2" height="24.65" shape-rendering="crispEdges"/><rect fill="#0d1117" x="12.2" y="635.9" width="1805.6" height="24.65" shape-rendering="crispEdges"/><rect fill="#0d1117" x="1817.8" y="635.9" width="12.2" height="24.65" shape-rendering="crispEdges"/><rect fill="#0d1117" x="0" y="660.3" width="12.2" height="24.65" shape-rendering="crispEdges"/><rect fill="#0d1117" x="12.2" y="660.3" width="1805.6" height="24.65" shape-rendering="crispEdges"/><rect fill="#0d1117" x="1817.8" y="660.3" width="12.2" height="24.65" shape-rendering="crispEdges"/><rect fill="#0d1117" x="0" y="684.7" width="12.2" height="24.65" shape-rendering="crispEdges"/><rect fill="#0d1117" x="12.2" y="684.7" width="1805.6" height="24.65" shape-rendering="crispEdges"/><rect fill="#0d1117" x="1817.8" y="684.7" width="12.2" height="24.65" shape-rendering="crispEdges"/><rect fill="#0d1117" x="0" y="709.1" width="12.2" height="24.65" shape-rendering="crispEdges"/><rect fill="#0d1117" x="12.2" y="709.1" width="1805.6" height="24.65" shape-rendering="crispEdges"/><rect fill="#0d1117" x="1817.8" y="709.1" width="12.2" height="24.65" shape-rendering="crispEdges"/><rect fill="#0d1117" x="0" y="733.5" width="12.2" height="24.65" shape-rendering="crispEdges"/><rect fill="#0d1117" x="12.2" y="733.5" width="1805.6" height="24.65" shape-rendering="crispEdges"/><rect fill="#0d1117" x="1817.8" y="733.5" width="12.2" height="24.65" shape-rendering="crispEdges"/><rect fill="#0d1117" x="0" y="757.9" width="12.2" height="24.65" shape-rendering="crispEdges"/><rect fill="#0d1117" x="12.2" y="757.9" width="1805.6" height="24.65" shape-rendering="crispEdges"/><rect fill="#0d1117" x="1817.8" y="757.9" width="12.2" height="24.65" shape-rendering="crispEdges"/><rect fill="#0d1117" x="0" y="782.3" width="12.2" height="24.65" shape-rendering="crispEdges"/><rect fill="#0d1117" x="12.2" y="782.3" width="1805.6" height="24.65" shape-rendering="crispEdges"/><rect fill="#0d1117" x="1817.8" y="782.3" width="12.2" height="24.65" shape-rendering="crispEdges"/><rect fill="#0d1117" x="0" y="806.7" width="12.2" height="24.65" shape-rendering="crispEdges"/><rect fill="#0d1117" x="12.2" y="806.7" width="1805.6" height="24.65" shape-rendering="crispEdges"/><rect fill="#0d1117" x="1817.8" y="806.7" width="12.2" height="24.65" shape-rendering="crispEdges"/><rect fill="#0d1117" x="0" y="831.1" width="12.2" height="24.65" shape-rendering="crispEdges"/><rect fill="#0d1117" x="12.2" y="831.1" width="1805.6" height="24.65" shape-rendering="crispEdges"/><rect fill="#0d1117" x="1817.8" y="831.1" width="12.2" height="24.65" shape-rendering="crispEdges"/><rect fill="#0d1117" x="0" y="855.5" width="12.2" height="24.65" shape-rendering="crispEdges"/><rect fill="#0d1117" x="12.2" y="855.5" width="1805.6" height="24.65" shape-rendering="crispEdges"/><rect fill="#0d1117" x="1817.8" y="855.5" width="12.2" height="24.65" shape-rendering="crispEdges"/><rect fill="#0d1117" x="0" y="879.9" width="12.2" height="24.65" shape-rendering="crispEdges"/><rect fill="#0d1117" x="12.2" y="879.9" width="1805.6" height="24.65" shape-rendering="crispEdges"/><rect fill="#0d1117" x="1817.8" y="879.9" width="12.2" height="24.65" shape-rendering="crispEdges"/><rect fill="#0d1117" x="0" y="904.3" width="12.2" height="24.65" shape-rendering="crispEdges"/><rect fill="#0d1117" x="12.2" y="904.3" width="1805.6" height="24.65" shape-rendering="crispEdges"/><rect fill="#0d1117" x="1817.8" y="904.3" width="12.2" height="24.65" shape-rendering="crispEdges"/><rect fill="#0d1117" x="0" y="928.7" width="12.2" height="24.65" shape-rendering="crispEdges"/><rect fill="#0d1117" x="12.2" y="928.7" width="1805.6" height="24.65" shape-rendering="crispEdges"/><rect fill="#0d1117" x="1817.8" y="928.7" width="12.2" height="24.65" shape-rendering="crispEdges"/><rect fill="#0d1117" x="0" y="953.1" width="12.2" height="24.65" shape-rendering="crispEdges"/><rect fill="#0d1117" x="12.2" y="953.1" width="1805.6" height="24.65" shape-rendering="crispEdges"/><rect fill="#0d1117" x="1817.8" y="953.1" width="12.2" height="24.65" shape-rendering="crispEdges"/><rect fill="#0d1117" x="0" y="977.5" width="12.2" height="24.65" shape-rendering="crispEdges"/><rect fill="#0d1117" x="12.2" y="977.5" width="1805.6" height="24.65" shape-rendering="crispEdges"/><rect fill="#0d1117" x="1817.8" y="977.5" width="12.2" height="24.65" shape-rendering="crispEdges"/><rect fill="#0d1117" x="0" y="1001.9" width="12.2" height="24.65" shape-rendering="crispEdges"/><rect fill="#0d1117" x="12.2" y="1001.9" width="1805.6" height="24.65" shape-rendering="crispEdges"/><rect fill="#0d1117" x="1817.8" y="1001.9" width="12.2" height="24.65" shape-rendering="crispEdges"/><rect fill="#0d1117" x="0" y="1026.3" width="12.2" height="24.65" shape-rendering="crispEdges"/><rect fill="#0d1117" x="12.2" y="1026.3" width="1805.6" height="24.65" shape-rendering="crispEdges"/><rect fill="#0d1117" x="1817.8" y="1026.3" width="12.2" height="24.65" shape-rendering="crispEdges"/><rect fill="#0d1117" x="0" y="1050.7" width="12.2" height="24.65" shape-rendering="crispEdges"/><rect fill="#0d1117" x="12.2" y="1050.7" width="1805.6" height="24.65" shape-rendering="crispEdges"/><rect fill="#0d1117" x="1817.8" y="1050.7" width="12.2" height="24.65" shape-rendering="crispEdges"/><rect fill="#0d1117" x="0" y="1075.1" width="12.2" height="24.65" shape-rendering="crispEdges"/><rect fill="#0d1117" x="12.2" y="1075.1" width="1805.6" height="24.65" shape-rendering="crispEdges"/><rect fill="#0d1117" x="1817.8" y="1075.1" width="12.2" height="24.65" shape-rendering="crispEdges"/><rect fill="#0d1117" x="0" y="1099.5" width="12.2" height="24.65" shape-rendering="crispEdges"/><rect fill="#0d1117" x="12.2" y="1099.5" width="1805.6" height="24.65" shape-rendering="crispEdges"/><rect fill="#0d1117" x="1817.8" y="1099.5" width="12.2" height="24.65" shape-rendering="crispEdges"/><rect fill="#0d1117" x="0" y="1123.9" width="12.2" height="24.65" shape-rendering="crispEdges"/><rect fill="#0d1117" x="12.2" y="1123.9" width="1805.6" height="24.65" shape-rendering="crispEdges"/><rect fill="#0d1117" x="1817.8" y="1123.9" width="12.2" height="24.65" shape-rendering="crispEdges"/><rect fill="#0d1117" x="0" y="1148.3" width="12.2" height="24.65" shape-rendering="crispEdges"/><rect fill="#0d1117" x="12.2" y="1148.3" width="1805.6" height="24.65" shape-rendering="crispEdges"/><rect fill="#0d1117" x="1817.8" y="1148.3" width="12.2" height="24.65" shape-rendering="crispEdges"/><rect fill="#0d1117" x="0" y="1172.7" width="12.2" height="24.65" shape-rendering="crispEdges"/><rect fill="#0d1117" x="12.2" y="1172.7" width="1805.6" height="24.65" shape-rendering="crispEdges"/><rect fill="#0d1117" x="1817.8" y="1172.7" width="12.2" height="24.65" shape-rendering="crispEdges"/><rect fill="#0d1117" x="0" y="1197.1" width="12.2" height="24.65" shape-rendering="crispEdges"/><rect fill="#0d1117" x="12.2" y="1197.1" width="1805.6" height="24.65" shape-rendering="crispEdges"/><rect fill="#0d1117" x="1817.8" y="1197.1" width="12.2" height="24.65" shape-rendering="crispEdges"/><rect fill="#0d1117" x="0" y="1221.5" width="12.2" height="24.65" shape-rendering="crispEdges"/><rect fill="#0d1117" x="12.2" y="1221.5" width="1805.6" height="24.65" shape-rendering="crispEdges"/><rect fill="#0d1117" x="1817.8" y="1221.5" width="12.2" height="24.65" shape-rendering="crispEdges"/><rect fill="#0d1117" x="0" y="1245.9" width="12.2" height="24.65" shape-rendering="crispEdges"/><rect fill="#0d1117" x="12.2" y="1245.9" width="1805.6" height="24.65" shape-rendering="crispEdges"/><rect fill="#0d1117" x="1817.8" y="1245.9" width="12.2" height="24.65" shape-rendering="crispEdges"/><rect fill="#0d1117" x="0" y="1270.3" width="12.2" height="24.65" shape-rendering="crispEdges"/><rect fill="#0d1117" x="12.2" y="1270.3" width="1805.6" height="24.65" shape-rendering="crispEdges"/><rect fill="#0d1117" x="1817.8" y="1270.3" width="12.2" height="24.65" shape-rendering="crispEdges"/><rect fill="#0d1117" x="0" y="1294.7" width="12.2" height="24.65" shape-rendering="crispEdges"/><rect fill="#0d1117" x="12.2" y="1294.7" width="1805.6" height="24.65" shape-rendering="crispEdges"/><rect fill="#0d1117" x="1817.8" y="1294.7" width="12.2" height="24.65" shape-rendering="crispEdges"/><rect fill="#0d1117" x="0" y="1319.1" width="12.2" height="24.65" shape-rendering="crispEdges"/><rect fill="#0d1117" x="12.2" y="1319.1" width="1805.6" height="24.65" shape-rendering="crispEdges"/><rect fill="#0d1117" x="1817.8" y="1319.1" width="12.2" height="24.65" shape-rendering="crispEdges"/><rect fill="#0d1117" x="0" y="1343.5" width="1830" height="24.65" shape-rendering="crispEdges"/><rect fill="#161b22" x="0" y="1367.9" width="1830" height="24.65" shape-rendering="crispEdges"/>
    <g class="terminal-4087944041-matrix">
    <text class="terminal-4087944041-r2" x="1830" y="20" textLength="12.2" clip-path="url(#terminal-4087944041-line-0)">
</text><text class="terminal-4087944041-r3" x="744.2" y="44.4" textLength="341.6" clip-path="url(#terminal-4087944041-line-1)">⚙&#160;&#160;C&#160;&#160;O&#160;&#160;N&#160;&#160;T&#160;&#160;R&#160;&#160;A&#160;&#160;C&#160;&#160;T&#160;&#160;S</text><text class="terminal-4087944041-r2" x="1830" y="44.4" textLength="12.2" clip-path="url(#terminal-4087944041-line-1)">
</text><text class="terminal-4087944041-r2" x="1830" y="68.8" textLength="12.2" clip-path="url(#terminal-4087944041-line-2)">
</text><text class="terminal-4087944041-r2" x="1830" y="93.2" textLength="12.2" clip-path="url(#terminal-4087944041-line-3)">
</text><text class="terminal-4087944041-r4" x="0" y="117.6" textLength="1830" clip-path="url(#terminal-4087944041-line-4)">▁▁▁▁▁▁▁▁▁▁▁▁▁▁▁▁▁▁▁▁▁▁▁▁▁▁▁▁▁▁▁▁▁▁▁▁▁▁▁▁▁▁▁▁▁▁▁▁▁▁▁▁▁▁▁▁▁▁▁▁▁▁▁▁▁▁▁▁▁▁▁▁▁▁▁▁▁▁▁▁▁▁▁▁▁▁▁▁▁▁▁▁▁▁▁▁▁▁▁▁▁▁▁▁▁▁▁▁▁▁▁▁▁▁▁▁▁▁▁▁▁▁▁▁▁▁▁▁▁▁▁▁▁▁▁▁▁▁▁▁▁▁▁▁▁▁▁▁▁▁</text><text class="terminal-4087944041-r2" x="1830" y="117.6" textLength="12.2" clip-path="url(#terminal-4087944041-line-4)">
</text><text class="terminal-4087944041-r2" x="1830" y="142" textLength="12.2" clip-path="url(#terminal-4087944041-line-5)">
</text><text class="terminal-4087944041-r5" x="12.2" y="166.4" textLength="73.2" clip-path="url(#terminal-4087944041-line-6)">task-1</text><text class="terminal-4087944041-r1" x="85.4" y="166.4" textLength="597.8" clip-path="url(#terminal-4087944041-line-6)">:&#160;Fix&#160;ReviewPoster&#160;comment&#160;tracking&#160;for&#160;feedback&#160;</text><text class="terminal-4087944041-r2" x="1830" y="166.4" textLength="12.2" clip-path="url(#terminal-4087944041-line-6)">
</text><text class="terminal-4087944041-r4" x="12.2" y="190.8" textLength="732" clip-path="url(#terminal-4087944041-line-7)">────────────────────────────────────────────────────────────</text><text class="terminal-4087944041-r2" x="1830" y="190.8" textLength="12.2" clip-path="url(#terminal-4087944041-line-7)">
</text><text class="terminal-4087944041-r7" x="12.2" y="215.2" textLength="12.2" clip-path="url(#terminal-4087944041-line-8)">⠏</text><text class="terminal-4087944041-r6" x="36.6" y="215.2" textLength="256.2" clip-path="url(#terminal-4087944041-line-8)">Waiting&#160;for&#160;output...</text><text class="terminal-4087944041-r2" x="1830" y="215.2" textLength="12.2" clip-path="url(#terminal-4087944041-line-8)">
</text><text class="terminal-4087944041-r2" x="1830" y="239.6" textLength="12.2" clip-path="url(#terminal-4087944041-line-9)">
</text><text class="terminal-4087944041-r2" x="1830" y="264" textLength="12.2" clip-path="url(#terminal-4087944041-line-10)">
</text><text class="terminal-4087944041-r2" x="1830" y="288.4" textLength="12.2" clip-path="url(#terminal-4087944041-line-11)">
</text><text class="terminal-4087944041-r2" x="1830" y="312.8" textLength="12.2" clip-path="url(#terminal-4087944041-line-12)">
</text><text class="terminal-4087944041-r2" x="1830" y="337.2" textLength="12.2" clip-path="url(#terminal-4087944041-line-13)">
</text><text class="terminal-4087944041-r2" x="1830" y="361.6" textLength="12.2" clip-path="url(#terminal-4087944041-line-14)">
</text><text class="terminal-4087944041-r2" x="1830" y="386" textLength="12.2" clip-path="url(#terminal-4087944041-line-15)">
</text><text class="terminal-4087944041-r2" x="1830" y="410.4" textLength="12.2" clip-path="url(#terminal-4087944041-line-16)">
</text><text class="terminal-4087944041-r2" x="1830" y="434.8" textLength="12.2" clip-path="url(#terminal-4087944041-line-17)">
</text><text class="terminal-4087944041-r2" x="1830" y="459.2" textLength="12.2" clip-path="url(#terminal-4087944041-line-18)">
</text><text class="terminal-4087944041-r2" x="1830" y="483.6" textLength="12.2" clip-path="url(#terminal-4087944041-line-19)">
</text><text class="terminal-4087944041-r2" x="1830" y="508" textLength="12.2" clip-path="url(#terminal-4087944041-line-20)">
</text><text class="terminal-4087944041-r2" x="1830" y="532.4" textLength="12.2" clip-path="url(#terminal-4087944041-line-21)">
</text><text class="terminal-4087944041-r2" x="1830" y="556.8" textLength="12.2" clip-path="url(#terminal-4087944041-line-22)">
</text><text class="terminal-4087944041-r2" x="1830" y="581.2" textLength="12.2" clip-path="url(#terminal-4087944041-line-23)">
</text><text class="terminal-4087944041-r2" x="1830" y="605.6" textLength="12.2" clip-path="url(#terminal-4087944041-line-24)">
</text><text class="terminal-4087944041-r2" x="1830" y="630" textLength="12.2" clip-path="url(#terminal-4087944041-line-25)">
</text><text class="terminal-4087944041-r2" x="1830" y="654.4" textLength="12.2" clip-path="url(#terminal-4087944041-line-26)">
</text><text class="terminal-4087944041-r2" x="1830" y="678.8" textLength="12.2" clip-path="url(#terminal-4087944041-line-27)">
</text><text class="terminal-4087944041-r2" x="1830" y="703.2" textLength="12.2" clip-path="url(#terminal-4087944041-line-28)">
</text><text class="terminal-4087944041-r2" x="1830" y="727.6" textLength="12.2" clip-path="url(#terminal-4087944041-line-29)">
</text><text class="terminal-4087944041-r2" x="1830" y="752" textLength="12.2" clip-path="url(#terminal-4087944041-line-30)">
</text><text class="terminal-4087944041-r2" x="1830" y="776.4" textLength="12.2" clip-path="url(#terminal-4087944041-line-31)">
</text><text class="terminal-4087944041-r2" x="1830" y="800.8" textLength="12.2" clip-path="url(#terminal-4087944041-line-32)">
</text><text class="terminal-4087944041-r2" x="1830" y="825.2" textLength="12.2" clip-path="url(#terminal-4087944041-line-33)">
</text><text class="terminal-4087944041-r2" x="1830" y="849.6" textLength="12.2" clip-path="url(#terminal-4087944041-line-34)">
</text><text class="terminal-4087944041-r2" x="1830" y="874" textLength="12.2" clip-path="url(#terminal-4087944041-line-35)">
</text><text class="terminal-4087944041-r2" x="1830" y="898.4" textLength="12.2" clip-path="url(#terminal-4087944041-line-36)">
</text><text class="terminal-4087944041-r2" x="1830" y="922.8" textLength="12.2" clip-path="url(#terminal-4087944041-line-37)">
</text><text class="terminal-4087944041-r2" x="1830" y="947.2" textLength="12.2" clip-path="url(#terminal-4087944041-line-38)">
</text><text class="terminal-4087944041-r2" x="1830" y="971.6" textLength="12.2" clip-path="url(#terminal-4087944041-line-39)">
</text><text class="terminal-4087944041-r2" x="1830" y="996" textLength="12.2" clip-path="url(#terminal-4087944041-line-40)">
</text><text class="terminal-4087944041-r2" x="1830" y="1020.4" textLength="12.2" clip-path="url(#terminal-4087944041-line-41)">
</text><text class="terminal-4087944041-r2" x="1830" y="1044.8" textLength="12.2" clip-path="url(#terminal-4087944041-line-42)">
</text><text class="terminal-4087944041-r2" x="1830" y="1069.2" textLength="12.2" clip-path="url(#terminal-4087944041-line-43)">
</text><text class="terminal-4087944041-r2" x="1830" y="1093.6" textLength="12.2" clip-path="url(#terminal-4087944041-line-44)">
</text><text class="terminal-4087944041-r2" x="1830" y="1118" textLength="12.2" clip-path="url(#terminal-4087944041-line-45)">
</text><text class="terminal-4087944041-r2" x="1830" y="1142.4" textLength="12.2" clip-path="url(#terminal-4087944041-line-46)">
</text><text class="terminal-4087944041-r2" x="1830" y="1166.8" textLength="12.2" clip-path="url(#terminal-4087944041-line-47)">
</text><text class="terminal-4087944041-r2" x="1830" y="1191.2" textLength="12.2" clip-path="url(#terminal-4087944041-line-48)">
</text><text class="terminal-4087944041-r2" x="1830" y="1215.6" textLength="12.2" clip-path="url(#terminal-4087944041-line-49)">
</text><text class="terminal-4087944041-r2" x="1830" y="1240" textLength="12.2" clip-path="url(#terminal-4087944041-line-50)">
</text><text class="terminal-4087944041-r2" x="1830" y="1264.4" textLength="12.2" clip-path="url(#terminal-4087944041-line-51)">
</text><text class="terminal-4087944041-r2" x="1830" y="1288.8" textLength="12.2" clip-path="url(#terminal-4087944041-line-52)">
</text><text class="terminal-4087944041-r2" x="1830" y="1313.2" textLength="12.2" clip-path="url(#terminal-4087944041-line-53)">
</text><text class="terminal-4087944041-r2" x="1830" y="1337.6" textLength="12.2" clip-path="url(#terminal-4087944041-line-54)">
</text><text class="terminal-4087944041-r2" x="1830" y="1362" textLength="12.2" clip-path="url(#terminal-4087944041-line-55)">
</text><text class="terminal-4087944041-r4" x="0" y="1386.4" textLength="1830" clip-path="url(#terminal-4087944041-line-56)">▔▔▔▔▔▔▔▔▔▔▔▔▔▔▔▔▔▔▔▔▔▔▔▔▔▔▔▔▔▔▔▔▔▔▔▔▔▔▔▔▔▔▔▔▔▔▔▔▔▔▔▔▔▔▔▔▔▔▔▔▔▔▔▔▔▔▔▔▔▔▔▔▔▔▔▔▔▔▔▔▔▔▔▔▔▔▔▔▔▔▔▔▔▔▔▔▔▔▔▔▔▔▔▔▔▔▔▔▔▔▔▔▔▔▔▔▔▔▔▔▔▔▔▔▔▔▔▔▔▔▔▔▔▔▔▔▔▔▔▔▔▔▔▔▔▔▔▔▔▔</text>
    </g>
    </g>
</svg>
